<svg xmlns="http://www.w3.org/2000/svg" viewBox="0 0 512 512" style="enable-background:new 0 0 512 512" xml:space="preserve"><path style="fill:#464655" d="M494.345 39.724H17.655C7.905 39.724 0 47.628 0 57.379v317.793c0 9.75 7.905 17.655 17.655 17.655h476.69c9.75 0 17.655-7.905 17.655-17.655V57.379c0-9.751-7.905-17.655-17.655-17.655zm-8.828 273.655H26.483V66.207h459.034v247.172z"/><path style="fill:#c7cfe2" d="M0 339.862v35.31c0 9.751 7.904 17.655 17.655 17.655h476.69c9.751 0 17.655-7.904 17.655-17.655v-35.31H0z"/><path style="fill:#afb9d2" d="M326.621 463.448H185.379l8.828-70.62h123.586z"/><path style="fill:#959cb3" d="m320 410.483-2.207-17.655H194.207L192 410.483z"/><circle style="fill:#959cb3" cx="256" cy="366.345" r="13.241"/><path style="fill:#c7cfe2" d="M326.621 472.276H185.379a8.829 8.829 0 0 1 0-17.656H326.62a8.828 8.828 0 0 1 .001 17.656z"/><path style="fill:#ffe182" d="M132.414 163.31h-35.31a8.829 8.829 0 0 0-8.828 8.828v105.931a8.829 8.829 0 0 0 8.828 8.828h35.31a8.829 8.829 0 0 0 8.828-8.828V172.138a8.83 8.83 0 0 0-8.828-8.828z"/><path style="fill:#ff6464" d="M203.034 128h-35.31a8.829 8.829 0 0 0-8.828 8.828v141.241a8.829 8.829 0 0 0 8.828 8.828h35.31a8.829 8.829 0 0 0 8.828-8.828V136.828a8.828 8.828 0 0 0-8.828-8.828z"/><path style="fill:#c3e678" d="M273.655 92.69h-35.31a8.829 8.829 0 0 0-8.828 8.828V278.07a8.829 8.829 0 0 0 8.828 8.828h35.31a8.829 8.829 0 0 0 8.828-8.828V101.517a8.828 8.828 0 0 0-8.828-8.827z"/><path style="fill:#aaebfa" d="M344.276 207.448h-35.31a8.829 8.829 0 0 0-8.828 8.828v61.793a8.829 8.829 0 0 0 8.828 8.828h35.31a8.829 8.829 0 0 0 8.828-8.828v-61.793a8.83 8.83 0 0 0-8.828-8.828z"/><path style="fill:#c3b4fa" d="M414.897 163.31h-35.31a8.829 8.829 0 0 0-8.828 8.828v105.931a8.829 8.829 0 0 0 8.828 8.828h35.31a8.829 8.829 0 0 0 8.828-8.828V172.138a8.83 8.83 0 0 0-8.828-8.828z"/><path style="fill:#ffcd64" d="M114.759 198.621a8.829 8.829 0 0 0-8.828 8.828v79.448h17.655v-79.448a8.827 8.827 0 0 0-8.827-8.828z"/><path style="fill:#d2555a" d="M185.379 163.31a8.829 8.829 0 0 0-8.828 8.828v114.759h17.655V172.138a8.827 8.827 0 0 0-8.827-8.828z"/><path style="fill:#a0cd5a" d="M256 128a8.829 8.829 0 0 0-8.828 8.828v150.069h17.655V136.828A8.827 8.827 0 0 0 256 128z"/><path style="fill:#78cde6" d="M317.793 251.586v35.31h17.655v-35.31a8.829 8.829 0 0 0-8.828-8.828 8.83 8.83 0 0 0-8.827 8.828z"/><path style="fill:#aaa0ff" d="M397.241 198.621a8.829 8.829 0 0 0-8.828 8.828v79.448h17.655v-79.448a8.827 8.827 0 0 0-8.827-8.828z"/></svg>